<?xml version="1.0" standalone="no"?>
<!DOCTYPE svg PUBLIC "-//W3C//DTD SVG 20010904//EN"
 "http://www.w3.org/TR/2001/REC-SVG-20010904/DTD/svg10.dtd">
<svg version="1.0" xmlns="http://www.w3.org/2000/svg"
 width="32.000000pt" height="32.000000pt" viewBox="0 0 32.000000 32.000000"
 preserveAspectRatio="xMidYMid meet">

<g transform="translate(0.000000,32.000000) scale(0.100000,-0.100000)"
fill="#000000" stroke="none">
<path d="M25 295 c-24 -23 -25 -31 -25 -135 0 -104 1 -112 25 -135 23 -24 31
-25 135 -25 104 0 112 1 135 25 24 23 25 31 25 135 0 104 -1 112 -25 135 -23
24 -31 25 -135 25 -104 0 -112 -1 -135 -25z m229 -35 c20 -7 26 -16 26 -40 0
-20 -5 -30 -15 -30 -9 0 -15 9 -15 25 0 18 -5 25 -20 25 -18 0 -20 -7 -20 -80
0 -73 2 -80 20 -80 16 0 20 7 20 30 0 17 -4 30 -10 30 -5 0 -10 5 -10 10 0 6
11 10 25 10 23 0 25 -3 25 -48 l0 -49 -45 -1 c-56 -3 -65 12 -65 107 0 61 3
72 22 85 26 19 29 19 62 6z m-126 -12 c17 -17 15 -58 -2 -58 -7 0 -16 9 -19
20 -7 26 -37 26 -37 1 0 -11 14 -27 34 -39 60 -35 51 -104 -14 -110 -36 -4
-60 16 -60 50 0 27 38 23 42 -4 4 -29 32 -30 36 -2 2 16 -7 27 -32 42 -63 37
-57 112 7 112 18 0 38 -5 45 -12z"/>
</g>
</svg>
